# xmcd CD database file
# Copyright (C) 1997 Ti Kan
#
# Track frame offsets:
#  150
#  23950
#  48475
#  78025
#  101200
#  132175
#  148337
#  169037
#  187525
#  211377
#  236002
#
# Disc length: 3589 seconds
#
# Revision: 1
# Processed by: cddbd v1.4b41PL1 Copyright (c) Steve Scherf et al.
# Submitted via: CDWizzard Release:4.35
#
DISCID=910e030b
DTITLE=Rod Piazza and The Mighty Flyers - Tough And Tender
DYEAR=1900
DGENRE=
TTITLE0=Power Of The Blues
TTITLE1=Quicksand
TTITLE2=Tough And Tender
TTITLE3=Sea Of Fools
TTITLE4=She Can't Say No
TTITLE5=The Teaser
TTITLE6=Blues And Trouble
TTITLE7=Under The Big Top
TTITLE8=Scary Boogie
TTITLE9=Hang-Ten Boogie
TTITLE10=Searchin For A Fortune
EXTD=
EXTT0=
EXTT1=
EXTT2=
EXTT3=
EXTT4=
EXTT5=
EXTT6=
EXTT7=
EXTT8=
EXTT9=
EXTT10=
PLAYORDER=
